<svg xmlns="http://www.w3.org/2000/svg" viewBox="0 0 496.21 546.32"><defs><style>.cls-1{fill:#fffefe;}.cls-2{fill:#f2a482;}</style></defs><title>logo</title><g id="Layer_2" data-name="Layer 2"><g id="Layer_1-2" data-name="Layer 1"><path class="cls-1" d="M494.19,546.32q0-267.71.17-535.42c0-7.29-1.76-9.07-9.05-9.06Q242.66,2.18,0,2C1.79-1.35,4.89.51,7.24.51Q225.76.35,444.29.41c15.29,0,30.59.25,45.87-.14,4.82-.13,5.79,1,5.77,5.78-.21,55.55-.13,111.11-.13,166.67q0,183.18-.1,366.35C495.69,541.43,497.55,544.53,494.19,546.32Z"/><path class="cls-2" d="M487.74,274.89q0,79.28,0,158.57c0,62.07-44.34,106.41-106.39,106.41H111.8c-60.44,0-105.34-44.77-105.35-105q0-159.78,0-319.56c0-60.39,44.8-105.19,105.18-105.2q135.57,0,271.15,0c59.89,0,104.92,44.9,105,104.63Q487.79,194.8,487.74,274.89ZM322.62,390.66a16.45,16.45,0,0,1,2.71,1.86c24.28,28.79,82.82,27.58,104.27-19.7,11.47-25.27,12.84-51.83,10.87-78.72-1.17-16-4.84-31.6-12.23-46.29-20.85-41.43-72.25-39.73-93.94-19.54-4.42,4.11-8,13.27-12.4,11.95-4.93-1.47-5.68-10.68-7.83-16.65-1.51-4.2-3.65-5.81-8.18-5.72-13.95.28-27.91.32-41.85,0-5.45-.12-6.76,1.93-6.76,7q.2,129.21,0,258.43c0,5.24,1.69,7,6.94,7,17.16-.25,34.34-.38,51.5.05,6.46.17,8.21-1.9,8.06-8.19C323.09,451.9,324.65,421.63,322.62,390.66ZM53.18,366.3c0,7.51.38,15-.13,22.52-.37,5.46,1.63,8.13,6.59,10.18,36.51,15.07,74.12,17.27,111.58,6.2,32.37-9.56,50.89-33,53.71-67,2.54-30.71-11-53.38-38.18-67.6-16.6-8.7-33.73-16.39-50.35-25.06-12.15-6.33-16.29-12.7-14.38-19.72,2-7.52,10-11.89,22.3-12.23,1.31,0,2.64.48,4,.52,18,.57,34.62,6.38,51,13.22,2.86,1.19,5.33,2.52,7-1.78,5.61-14.49,11.46-28.89,17.17-43.34,1.26-3.19.63-5.49-2.93-7-38.45-16.33-78-22-118.23-8.69C55,182.16,38.78,238,69.26,277.26c9.28,12,22.38,18.94,35.43,25.86,14.43,7.65,30,13,43.84,21.86,6,3.87,10.43,8.83,8.89,16.52-1.47,7.34-6.83,11.31-13.7,13.2-9.74,2.69-19.71,2.14-29.48.64a192.73,192.73,0,0,1-55-16.92c-4.55-2.21-6.23-1.51-6.08,3.74C53.35,350.2,53.18,358.25,53.18,366.3Z"/><path class="cls-1" d="M322.62,390.66c2,31,.47,61.24,1.17,91.47.15,6.29-1.6,8.36-8.06,8.19-17.16-.43-34.34-.3-51.5-.05-5.25.07-7-1.72-6.94-7q.18-129.21,0-258.43c0-5.11,1.31-7.16,6.76-7,13.94.33,27.9.29,41.85,0,4.53-.09,6.67,1.52,8.18,5.72,2.15,6,2.9,15.18,7.83,16.65,4.44,1.32,8-7.84,12.4-11.95,21.69-20.19,73.09-21.89,93.94,19.54,7.39,14.69,11.06,30.27,12.23,46.29,2,26.89.6,53.45-10.87,78.72-21.45,47.28-80,48.49-104.27,19.7A16.45,16.45,0,0,0,322.62,390.66Zm50.61-76.74c.31-11.66-.05-22.89-4.73-33.42-4.47-10-11.26-13.63-23.38-12.83-8.41.57-14.86,5.74-17.53,15.22a112.65,112.65,0,0,0-3.4,18.89,96.59,96.59,0,0,0,4.48,42c3.11,9,10.32,13.45,19.8,13.74,9.31.29,15.83-4.1,19.6-12.58C372.52,334.91,373.73,324.36,373.23,313.92Z"/><path class="cls-1" d="M53.18,366.3c0-8.05.17-16.1-.06-24.14-.15-5.25,1.53-6,6.08-3.74a192.73,192.73,0,0,0,55,16.92c9.77,1.5,19.74,2.05,29.48-.64,6.87-1.89,12.23-5.86,13.7-13.2,1.54-7.69-2.85-12.65-8.89-16.52-13.84-8.85-29.41-14.21-43.84-21.86-13-6.92-26.15-13.9-35.43-25.86C38.78,238,55,182.16,102.26,166.55c40.24-13.3,79.78-7.64,118.23,8.69,3.56,1.51,4.19,3.81,2.93,7-5.71,14.45-11.56,28.85-17.17,43.34-1.66,4.3-4.13,3-7,1.78-16.36-6.84-33-12.65-51-13.22-1.32,0-2.65-.55-4-.52-12.33.34-20.25,4.71-22.3,12.23-1.91,7,2.23,13.39,14.38,19.72,16.62,8.67,33.75,16.36,50.35,25.06,27.15,14.22,40.72,36.89,38.18,67.6-2.82,34-21.34,57.41-53.71,67-37.46,11.07-75.07,8.87-111.58-6.2-5-2.05-7-4.72-6.59-10.18C53.56,381.34,53.18,373.81,53.18,366.3Z"/><path class="cls-2" d="M373.23,313.92c.5,10.44-.71,21-5.16,31-3.77,8.48-10.29,12.87-19.6,12.58-9.48-.29-16.69-4.76-19.8-13.74a96.59,96.59,0,0,1-4.48-42,112.65,112.65,0,0,1,3.4-18.89c2.67-9.48,9.12-14.65,17.53-15.22,12.12-.8,18.91,2.79,23.38,12.83C373.18,291,373.54,302.26,373.23,313.92Z"/></g></g></svg>